<svg xmlns="http://www.w3.org/2000/svg" width="38" height="36" viewBox="0 0 38 36">
  <g id="close-open" transform="translate(-1212 -30)">
    <g id="사각형_1" data-name="사각형 1" transform="translate(1212 30)" fill="none" stroke="#000" stroke-width="2">
      <rect width="38" height="36" rx="4" stroke="none"/>
      <rect x="1" y="1" width="36" height="34" rx="3" fill="none"/>
    </g>
    <g id="Icon_ionic-ios-menu" data-name="Icon ionic-ios-menu" transform="translate(1213.5 30.875)">
      <path id="패스_1" data-name="패스 1" d="M29.417,12.375H5.583A1.108,1.108,0,0,1,4.5,11.25h0a1.108,1.108,0,0,1,1.083-1.125H29.417A1.108,1.108,0,0,1,30.5,11.25h0A1.108,1.108,0,0,1,29.417,12.375Z" transform="translate(13.068 -3.216) rotate(45)"/>
      <path id="패스_3" data-name="패스 3" d="M29.417,25.875H5.583A1.108,1.108,0,0,1,4.5,24.75h0a1.108,1.108,0,0,1,1.083-1.125H29.417A1.108,1.108,0,0,1,30.5,24.75h0A1.108,1.108,0,0,1,29.417,25.875Z" transform="translate(-12.387 11.986) rotate(-45)"/>
    </g>
  </g>
</svg>
